<?xml version="1.0" encoding="utf-8"?>
<!-- Generator: Adobe Illustrator 19.0.0, SVG Export Plug-In . SVG Version: 6.00 Build 0)  -->
<svg version="1.1" id="Layer_1" xmlns="http://www.w3.org/2000/svg" xmlns:xlink="http://www.w3.org/1999/xlink" x="0px" y="0px"
	 viewBox="-463 265 31.9 32" style="enable-background:new -463 265 31.9 32;" xml:space="preserve">
<style type="text/css">
	.st0{fill:url(#XMLID_2_);}
	.st1{fill:url(#XMLID_3_);}
	.st2{fill:url(#XMLID_4_);}
</style>
<g id="XMLID_5_">
	<linearGradient id="XMLID_2_" gradientUnits="userSpaceOnUse" x1="-438.0359" y1="283.6782" x2="-444.3916" y2="288.7157">
		<stop  offset="0" style="stop-color:#0000FF"/>
		<stop  offset="0.9479" style="stop-color:#000000"/>
	</linearGradient>
	<path id="XMLID_20_" class="st0" d="M-440.3,282.2c-1.8-3.9-3-6.7-4.1-8.9c0,0-0.1,0-0.2,0.1c-5,1.6-4.5,1.1-7,3.1
		c-0.2,0.1-0.4,0.4-0.7,0.8c0.2-0.1,0.5-0.2,0.7-0.3c2.1-0.5,3.8,2.8,9.5,9c3.9,4.3,10.2,10.9,10.2,10.9S-437.8,287.9-440.3,282.2z"
		/>
	<linearGradient id="XMLID_3_" gradientUnits="userSpaceOnUse" x1="-451.0367" y1="272.3278" x2="-456.441" y2="289.1497">
		<stop  offset="0" style="stop-color:#0000FF"/>
		<stop  offset="1" style="stop-color:#000000"/>
	</linearGradient>
	<path id="XMLID_19_" class="st1" d="M-451.9,277.5c1.9-2.3,7.4-4.2,7.8-3.8c-1.4-2.9-2.2-4.4-4.3-6.6c-2-2.1-4.1-2.1-4.5-2
		c-3.6,0.3-6.9,12-7.3,14.1c-0.6,3.4-1.3,7.1,0.9,8.8c1.4,1.1,3.6,0.8,4.8,0.5c-0.3-1.1-0.9-3.7,0.1-6.8
		C-453.8,279.6-452.7,278.2-451.9,277.5z"/>
	<g id="XMLID_7_">
		<linearGradient id="XMLID_4_" gradientUnits="userSpaceOnUse" x1="-447.1844" y1="284.3131" x2="-444.2184" y2="291.6575">
			<stop  offset="0" style="stop-color:#0000FF"/>
			<stop  offset="1" style="stop-color:#000000"/>
		</linearGradient>
		<path id="XMLID_8_" class="st2" d="M-460.3,278.9c-0.5,1.5-1,3.4-1.4,5.4c-0.1,0.3-0.3,1.4-0.5,2.8c-0.2,1.1-0.2,1.8-0.3,2.2
			c-0.1,0.7-0.1,1.4-0.1,2.1c0,0,0,0,0,0.1c0,0.4,0,0.8,0,1.2c0,0.1,0,0.1,0,0.2c0,0.8,0.1,1.7,0.4,2.5c0.1,0.2,0.2,0.4,0.3,0.6
			c0.1,0.2,0.2,0.3,0.3,0.4c0.1,0.1,0.3,0.3,0.8,0.4c0.4,0.1,1.1,0.1,1.4,0c6.1-1.2,17-9.5,17.1-9.5l0,0c4.5-3.9,6.9-6.4,7.9-7.5
			c0.9-0.9,2-2.3,3.3-3.9c-2.9,2.4-10.7,7.5-14.6,9.3c-2,0.9-3.9,1.8-8.7,2.5c-2,0.3-3.2,0-4-0.4c0,0-0.5-0.2-0.9-0.6
			C-460.7,285.5-461,282.4-460.3,278.9z"/>
	</g>
</g>
</svg>
